<svg width="20" height="20" viewBox="0 0 20 20" fill="none" xmlns="http://www.w3.org/2000/svg">
<path d="M14.1667 15C14.6087 15 15.0326 15.1756 15.3452 15.4882C15.6577 15.8007 15.8333 16.2247 15.8333 16.6667C15.8333 17.1087 15.6577 17.5326 15.3452 17.8452C15.0326 18.1578 14.6087 18.3334 14.1667 18.3334C13.7246 18.3334 13.3007 18.1578 12.9882 17.8452C12.6756 17.5326 12.5 17.1087 12.5 16.6667C12.5 15.7417 13.2417 15 14.1667 15ZM0.833328 1.66669H3.55833L4.34166 3.33335H16.6667C16.8877 3.33335 17.0996 3.42115 17.2559 3.57743C17.4122 3.73371 17.5 3.94567 17.5 4.16669C17.5 4.30835 17.4583 4.45002 17.4 4.58335L14.4167 9.97502C14.1333 10.4834 13.5833 10.8334 12.9583 10.8334H6.75L6 12.1917L5.975 12.2917C5.975 12.3469 5.99694 12.3999 6.03601 12.439C6.07508 12.4781 6.12808 12.5 6.18333 12.5H15.8333V14.1667H5.83333C5.3913 14.1667 4.96738 13.9911 4.65482 13.6785C4.34226 13.366 4.16666 12.942 4.16666 12.5C4.16666 12.2084 4.24166 11.9334 4.36666 11.7L5.5 9.65835L2.49999 3.33335H0.833328V1.66669ZM5.83333 15C6.27536 15 6.69928 15.1756 7.01184 15.4882C7.3244 15.8007 7.5 16.2247 7.5 16.6667C7.5 17.1087 7.3244 17.5326 7.01184 17.8452C6.69928 18.1578 6.27536 18.3334 5.83333 18.3334C5.3913 18.3334 4.96738 18.1578 4.65482 17.8452C4.34226 17.5326 4.16666 17.1087 4.16666 16.6667C4.16666 15.7417 4.90833 15 5.83333 15ZM13.3333 9.16669L15.65 5.00002H5.11666L7.08333 9.16669H13.3333Z" fill="currentColor"/>
<path d="M4.5 5H16.5L13.5 10.5H7L4.5 5Z" fill="currentColor"/>
</svg>
