<svg width="20" height="13" viewBox="0 0 20 13" fill="none" xmlns="http://www.w3.org/2000/svg">
<path fill-rule="evenodd" clip-rule="evenodd" d="M18.8975 0L10.1246 8.99575C10.0095 9.1146 9.80027 9.1146 9.68513 8.99822C5.71219 4.91386 2.59228 1.63919 1.10661 0H18.8975ZM0 11.6594V0.716227C0.881499 1.73391 2.46126 3.41025 5.23947 6.28626L0 11.6594ZM14.5792 6.29638L19.8087 11.6597V0.933105L14.5792 6.29638ZM9.9059 10.41C10.333 10.41 10.7342 10.2391 11.0363 9.92959L13.6684 7.23062L19.2954 13H0.515218L6.14715 7.22443C6.9358 8.03907 7.80863 8.93666 8.77432 9.92959C9.0764 10.2391 9.47754 10.41 9.9059 10.41Z" fill="currentColor"/>
</svg>
