<svg width="31" height="26" viewBox="0 0 31 26" fill="none" xmlns="http://www.w3.org/2000/svg">
<path fill-rule="evenodd" clip-rule="evenodd" d="M12.001 0.499756H23.7488L23.7494 0.500379H23.7518L30.0018 6.75038V8.00038H30.001V23.4998V25.4998H28.001H12.001H10.001V23.4998V2.49976V0.499756H12.001ZM28.001 8.00038H22.5018V2.49976H12.001V23.4998H28.001V8.00038Z" fill="currentColor"/>
<rect x="0.5" y="10.5" width="20" height="10" fill="currentColor" stroke="currentColor"/>
<path d="M1.62012 11.9541H4.35938C5.0625 11.9541 5.63379 12.1722 6.07324 12.6084C6.5127 13.0413 6.73242 13.6094 6.73242 14.3125C6.73242 15.0124 6.50618 15.5804 6.05371 16.0166C5.60449 16.4528 5.02181 16.6709 4.30566 16.6709H2.87988V19H1.62012V11.9541ZM2.87988 12.9844V15.6553H4.02246C4.47493 15.6553 4.8265 15.5381 5.07715 15.3037C5.3278 15.0693 5.45312 14.7389 5.45312 14.3125C5.45312 13.8893 5.3278 13.5622 5.07715 13.3311C4.82975 13.0999 4.47982 12.9844 4.02734 12.9844H2.87988ZM7.65527 11.9541H10.2285C11.2832 11.9541 12.1051 12.2601 12.6943 12.8721C13.2835 13.484 13.5781 14.3467 13.5781 15.46C13.5781 16.5765 13.2835 17.4456 12.6943 18.0674C12.1051 18.6891 11.2832 19 10.2285 19H7.65527V11.9541ZM8.91504 13.0186V17.9355H10.0967C10.8063 17.9355 11.3499 17.724 11.7275 17.3008C12.1051 16.8776 12.2939 16.2656 12.2939 15.4648C12.2939 14.6771 12.1035 14.0732 11.7227 13.6533C11.3418 13.2301 10.7998 13.0186 10.0967 13.0186H8.91504ZM15.8389 19H14.5791V11.9541H19.0713V13.0186H15.8389V15.0986H18.793V16.124H15.8389V19Z" fill="white"/>
</svg>
