<svg width="19" height="17" viewBox="0 0 19 17" fill="none" xmlns="http://www.w3.org/2000/svg">
<path fill-rule="evenodd" clip-rule="evenodd" d="M6.61602 12.7501C10.27 12.7501 13.232 9.89587 13.232 6.37503C13.232 2.8542 10.27 0 6.61602 0C2.96209 0 0 2.8542 0 6.37503C0 9.89587 2.96209 12.7501 6.61602 12.7501Z" fill="currentColor"/>
<path fill-rule="evenodd" clip-rule="evenodd" d="M6.61597 11.6051C9.53911 11.6051 11.9088 9.29585 11.9088 6.44724C11.9088 3.59863 9.53911 1.28937 6.61597 1.28937C3.69283 1.28937 1.32315 3.59863 1.32315 6.44724C1.32315 9.29585 3.69283 11.6051 6.61597 11.6051Z" fill="white"/>
<path fill-rule="evenodd" clip-rule="evenodd" d="M10.4419 11.8475C10.0222 11.4885 10.0222 10.9063 10.4419 10.5473L10.5207 10.4798C10.9404 10.1208 11.6207 10.1208 12.0404 10.4798L17.3027 14.9822C17.7223 15.3412 17.7223 15.9234 17.3027 16.2824L17.2238 16.3499C16.8042 16.7089 16.1238 16.7089 15.7041 16.3499L10.4419 11.8475Z" fill="currentColor"/>
</svg>
