<svg width="60" height="44" viewBox="0 0 60 44" fill="none" xmlns="http://www.w3.org/2000/svg">
<mask id="path-1-inside-1" fill="white">
<rect x="40.6445" y="23.0002" width="11.9999" height="11.9999" rx="0.5"/>
</mask>
<rect x="40.6445" y="23.0002" width="11.9999" height="11.9999" rx="0.5" stroke="currentColor" stroke-width="2" mask="url(#path-1-inside-1)"/>
<mask id="path-2-inside-2" fill="white">
<rect x="24.3335" y="23.0002" width="11.9999" height="11.9999" rx="0.5"/>
</mask>
<rect x="24.3335" y="23.0002" width="11.9999" height="11.9999" rx="0.5" stroke="currentColor" stroke-width="2" mask="url(#path-2-inside-2)"/>
<mask id="path-3-inside-3" fill="white">
<rect x="8" y="23.0002" width="11.9999" height="11.9999" rx="0.5"/>
</mask>
<rect x="8" y="23.0002" width="11.9999" height="11.9999" rx="0.5" stroke="currentColor" stroke-width="2" mask="url(#path-3-inside-3)"/>
<mask id="path-4-inside-4" fill="white">
<rect x="40.6445" y="8" width="11.9999" height="11.9999" rx="0.5"/>
</mask>
<rect x="40.6445" y="8" width="11.9999" height="11.9999" rx="0.5" stroke="currentColor" stroke-width="2" mask="url(#path-4-inside-4)"/>
<mask id="path-5-inside-5" fill="white">
<rect x="24.3335" y="8" width="11.9999" height="11.9999" rx="0.5"/>
</mask>
<rect x="24.3335" y="8" width="11.9999" height="11.9999" rx="0.5" stroke="currentColor" stroke-width="2" mask="url(#path-5-inside-5)"/>
<mask id="path-6-inside-6" fill="white">
<rect x="8" y="8" width="11.9999" height="11.9999" rx="0.5"/>
</mask>
<rect x="8" y="8" width="11.9999" height="11.9999" rx="0.5" stroke="currentColor" stroke-width="2" mask="url(#path-6-inside-6)"/>
</svg>
