<svg width="110" height="78" viewBox="0 0 110 78" fill="none" xmlns="http://www.w3.org/2000/svg">
<path d="M105.231 7.08859C101.284 2.42025 93.9982 0.515991 80.0833 0.515991H29.572C15.3386 0.515991 7.92894 2.54308 3.99736 7.51324C0.164185 12.3592 0.164185 19.4992 0.164185 29.3813V48.2164C0.164185 67.3611 4.71223 77.0814 29.572 77.0814H80.0836C92.1506 77.0814 98.8372 75.4011 103.163 71.2813C107.599 67.0565 109.492 60.1586 109.492 48.2164V29.3813C109.492 18.9598 109.196 11.7776 105.231 7.08859ZM70.3531 41.3992L47.4161 53.3284C46.9033 53.5951 46.3425 53.7274 45.7825 53.7274C45.1484 53.7274 44.5157 53.5576 43.9553 53.2199C42.9001 52.5837 42.2558 51.4455 42.2558 50.2179V26.4361C42.2558 25.2106 42.8984 24.0735 43.9514 23.4369C45.0049 22.8003 46.315 22.7568 47.408 23.3218L70.345 35.1741C71.512 35.777 72.2448 36.9759 72.2466 38.2839C72.248 39.5929 71.5183 40.7935 70.3531 41.3992Z" fill="currentColor"/>
</svg>
