<svg width="31" height="26" viewBox="0 0 31 26" fill="none" xmlns="http://www.w3.org/2000/svg">
<path fill-rule="evenodd" clip-rule="evenodd" d="M12.001 0.499756H23.7488L23.7494 0.500379H23.7518L30.0018 6.75038V8.00038H30.001V23.4998V25.4998H28.001H12.001H10.001V23.4998V2.49976V0.499756H12.001ZM28.001 8.00038H22.5018V2.49976H12.001V23.4998H28.001V8.00038Z" fill="currentColor"/>
<rect x="0.5" y="10.5" width="20" height="10" fill="currentColor" stroke="currentColor"/>
<path d="M3.44922 19V18.1602L7.18945 13.0527V13.0186H3.55176V11.9541H8.71289V12.7939L4.99219 17.9014V17.9355H8.80566V19H3.44922ZM11.1396 19H9.87988V11.9541H11.1396V19ZM12.3799 11.9541H15.1191C15.8223 11.9541 16.3936 12.1722 16.833 12.6084C17.2725 13.0413 17.4922 13.6094 17.4922 14.3125C17.4922 15.0124 17.266 15.5804 16.8135 16.0166C16.3643 16.4528 15.7816 16.6709 15.0654 16.6709H13.6396V19H12.3799V11.9541ZM13.6396 12.9844V15.6553H14.7822C15.2347 15.6553 15.5863 15.5381 15.8369 15.3037C16.0876 15.0693 16.2129 14.7389 16.2129 14.3125C16.2129 13.8893 16.0876 13.5622 15.8369 13.3311C15.5895 13.0999 15.2396 12.9844 14.7871 12.9844H13.6396Z" fill="white"/>
</svg>
