<svg width="18" height="20" viewBox="0 0 18 20" fill="none" xmlns="http://www.w3.org/2000/svg">
<path d="M9 0.661194C6.61305 0.661194 4.32387 1.64859 2.63604 3.40617C0.948211 5.16375 0 7.54753 0 10.0331C0 12.5187 0.948211 14.9025 2.63604 16.6601C4.32387 18.4177 6.61305 19.4051 9 19.4051C11.3869 19.4051 13.6761 18.4177 15.364 16.6601C17.0518 14.9025 18 12.5187 18 10.0331C18 7.54753 17.0518 5.16375 15.364 3.40617C13.6761 1.64859 11.3869 0.661194 9 0.661194Z" fill="#29B6F6"/>
<path d="M13.4775 5.81583L11.7918 14.7782C11.7918 14.7782 11.7194 15.1878 11.2316 15.1878C10.9724 15.1878 10.8387 15.0594 10.8387 15.0594L7.18741 11.9043L5.40091 10.9666L3.10816 10.3317C3.10816 10.3317 2.70001 10.2089 2.70001 9.85747C2.70001 9.5646 3.11986 9.42496 3.11986 9.42496L12.7121 5.45688C12.7116 5.45641 13.005 5.34676 13.2188 5.34723C13.3502 5.34723 13.5 5.40581 13.5 5.58153C13.5 5.69868 13.4775 5.81583 13.4775 5.81583Z" fill="white"/>
<path d="M8.54993 13.0814L7.00821 14.6624C7.00821 14.6624 6.94115 14.7163 6.8516 14.7186C6.82055 14.7196 6.78725 14.7144 6.75305 14.6985L7.18686 11.9033L8.54993 13.0814Z" fill="#B0BEC5"/>
<path d="M11.6536 7.31347C11.5776 7.21038 11.4372 7.19164 11.3382 7.2699L5.39996 10.9704C5.39996 10.9704 6.34767 13.7314 6.49212 14.2093C6.63702 14.6878 6.75312 14.699 6.75312 14.699L7.18692 11.9038L11.6113 7.64149C11.7103 7.56324 11.7288 7.41657 11.6536 7.31347Z" fill="#CFD8DC"/>
</svg>
