<svg width="88" height="30" viewBox="0 0 88 30" fill="none" xmlns="http://www.w3.org/2000/svg">
<path d="M0 2C0 0.89543 0.895431 0 2 0H38.5C39.6046 0 40.5 0.895431 40.5 2V28C40.5 29.1046 39.6046 30 38.5 30H2C0.895429 30 0 29.1046 0 28V2Z" fill="#1867C0"/>
<path d="M47.4933 21.5662L53.2184 7.84655C53.4312 7.38681 53.6856 7.01897 53.99 6.74332C54.2901 6.46279 54.7447 6.32465 55.3491 6.32465C55.9789 6.32465 56.5168 6.57292 56.9589 7.07436C57.405 7.5709 57.6261 8.16847 57.6261 8.8719V23.9248H55.3744V8.6145L49.6742 22.4029C49.4531 22.8721 49.1945 23.2396 48.8944 23.5156C48.5981 23.787 48.1479 23.9248 47.5432 23.9248C46.9095 23.9248 46.3675 23.6765 45.9171 23.1754C45.4668 22.6789 45.2415 22.0859 45.2415 21.3915V6.32465H47.4933V21.5662ZM60.0737 8.8074V6.32465H72.5333V8.8074H67.4294V23.9248H65.1778V8.8074H60.0737ZM79.743 8.8074C78.0584 8.8074 77.2162 9.72719 77.2162 11.5707V18.6788C77.2162 20.5226 78.0584 21.442 79.743 21.442H87.3989V23.9248H78.613C78.1503 23.9248 77.6999 23.8238 77.2578 23.6214C76.82 23.4191 76.4281 23.1477 76.0861 22.8076C75.7439 22.4674 75.4731 22.0582 75.2689 21.5799C75.0644 21.1064 74.9645 20.6008 74.9645 20.0583V10.1915C74.9645 9.65812 75.0644 9.16157 75.2689 8.68813C75.4731 8.21897 75.7439 7.80516 76.0861 7.4559C76.4281 7.10629 76.82 6.83064 77.2578 6.62831C77.6999 6.42598 78.1503 6.32465 78.613 6.32465H87.3989V8.8074H79.743Z" fill="#2C2C2C"/>
<path d="M33.21 0H7.04331C3.1534 0 0 3.47692 0 7.76594V22.234C0 26.523 3.1534 30 7.04331 30H33.21C37.1001 30 40.2533 26.523 40.2533 22.234V7.76594C40.2533 3.47692 37.1001 0 33.21 0Z" fill="#1867C0"/>
<path d="M9.37478 15.9172H14.7996C16.4719 15.9172 17.3058 14.9932 17.3058 13.1494V11.7884C17.3058 9.94493 16.4719 9.02057 14.7996 9.02057H9.37478V15.9172ZM9.37478 18.4V24.138H7.12305V6.53784H15.9089C16.3717 6.53784 16.8262 6.63916 17.2683 6.84149C17.7145 7.04383 18.1063 7.31947 18.4485 7.66908C18.7904 8.01836 19.0572 8.4276 19.2573 8.90133C19.4576 9.3702 19.5575 9.8713 19.5575 10.4001V14.5471C19.5575 15.0805 19.4576 15.5816 19.2573 16.0645C19.0572 16.5425 18.7904 16.9517 18.4485 17.2873C18.1063 17.6278 17.7103 17.8943 17.2683 18.0966C16.8262 18.299 16.3717 18.4 15.9048 18.4H9.37478ZM25.6664 18.0689C25.1995 18.0689 24.7491 17.9679 24.3073 17.7656C23.8692 17.5633 23.4773 17.2968 23.1355 16.9563C22.7933 16.6207 22.5223 16.2114 22.3181 15.7335C22.1136 15.2506 22.0137 14.7449 22.0137 14.2161V6.53784H24.2654V12.8229C24.2654 14.6667 25.1077 15.5862 26.7965 15.5862H29.6904C31.3627 15.5862 32.1965 14.6667 32.1965 12.8229V6.53784H34.4483V20.2715C34.4483 20.814 34.3484 21.3197 34.148 21.7931C33.948 22.2714 33.681 22.6806 33.3393 23.0208C32.9971 23.3609 32.6052 23.6323 32.1591 23.8347C31.717 24.037 31.2623 24.138 30.7997 24.138H22.0137V21.6552H29.6944C31.3627 21.6552 32.1965 20.7358 32.1965 18.892V18.0689H25.6664Z" fill="white"/>
</svg>
