<?xml version="1.0" encoding="utf-8"?><svg viewBox="0 0 110 78" xmlns="http://www.w3.org/2000/svg" xmlns:xlink="http://www.w3.org/1999/xlink"><style>:root>svg{display:none}:root>svg:target{display:block}</style><svg fill="none" viewBox="0 0 17 10" id="ic_burger" xmlns="http://www.w3.org/2000/svg"><path fill-rule="evenodd" clip-rule="evenodd" d="M0 1h16.997V0H0v1zM0 9.643h16.997v-1H0v1zM0 5.352h16.997v-1H0v1z" fill="currentColor"/></svg><svg fill="none" viewBox="0 0 20 20" id="ic_cart" xmlns="http://www.w3.org/2000/svg"><path d="M14.167 15a1.667 1.667 0 1 1 0 3.333 1.667 1.667 0 0 1 0-3.333zM.833 1.667h2.725l.784 1.666h12.325a.833.833 0 0 1 .833.834c0 .141-.042.283-.1.416l-2.983 5.392a1.676 1.676 0 0 1-1.459.858H6.75L6 12.192l-.025.1a.208.208 0 0 0 .208.208h9.65v1.667h-10A1.667 1.667 0 0 1 4.167 12.5c0-.292.075-.567.2-.8L5.5 9.658l-3-6.325H.833V1.667zm5 13.333a1.667 1.667 0 1 1 0 3.333 1.667 1.667 0 0 1 0-3.333zm7.5-5.833L15.65 5H5.117l1.966 4.167h6.25z" fill="currentColor"/><path d="M4.5 5h12l-3 5.5H7L4.5 5z" fill="currentColor"/></svg><svg fill="none" viewBox="0 0 16 16" id="ic_close" xmlns="http://www.w3.org/2000/svg"><path fill-rule="evenodd" clip-rule="evenodd" d="M15.92 1.778L14.506.364 8.142 6.728 1.778.364.364 1.778l6.364 6.364-6.364 6.364 1.414 1.414 6.364-6.364 6.364 6.364 1.415-1.414-6.365-6.364 6.364-6.364z" fill="currentColor"/></svg><svg fill="none" viewBox="0 0 13 11" id="ic_compare" xmlns="http://www.w3.org/2000/svg"><path fill-rule="evenodd" clip-rule="evenodd" d="M3.456 0H5.53v10.876H3.456V0zm3.457 2.33h2.074v8.546H6.913V2.331zm-4.84 2.331H0v6.215h2.074V4.661z" fill="currentColor"/><path d="M10.512 4.326h2.074v6.584h-2.074V4.326z" fill="currentColor"/></svg><svg fill="none" viewBox="0 0 23 17" id="ic_copy" xmlns="http://www.w3.org/2000/svg"><path fill-rule="evenodd" clip-rule="evenodd" d="M18.45 16.054H.864V4.494h17.588v11.56z" fill="#fff" stroke="currentColor" stroke-linecap="square"/><path fill-rule="evenodd" clip-rule="evenodd" d="M21.802 1.14v13.004h-1.92v-.723h1.187V1.86H3.481V3.06h-.733V1.14h19.054z" fill="currentColor" stroke="currentColor"/></svg><svg fill="none" viewBox="0 0 20 13" id="ic_email" xmlns="http://www.w3.org/2000/svg"><path fill-rule="evenodd" clip-rule="evenodd" d="M18.898 0l-8.773 8.996a.318.318 0 0 1-.44.002C5.712 4.914 2.592 1.64 1.107 0h17.79zM0 11.66V.715c.881 1.018 2.461 2.694 5.24 5.57L0 11.66zm14.58-5.364l5.229 5.364V.933l-5.23 5.363zM9.905 10.41c.427 0 .828-.17 1.13-.48l2.632-2.7L19.295 13H.515l5.632-5.776c.789.815 1.662 1.713 2.627 2.706.302.31.704.48 1.132.48z" fill="currentColor"/></svg><svg fill="none" viewBox="0 0 11 11" id="ic_favorite" xmlns="http://www.w3.org/2000/svg"><path d="M.428 0h9.792v10.847L5.324 7.051.428 10.847V0z" fill="currentColor"/></svg><svg fill="none" viewBox="0 0 16 19" id="ic_file" xmlns="http://www.w3.org/2000/svg"><path fill-rule="evenodd" clip-rule="evenodd" d="M2 0h8.45l4.75 4.75V19H0V0h2zm11.2 5.7H9.5V2H2v15h11.2V5.7zM3.8 7.6h7.6v.95H3.8V7.6zm0 2.85h7.6v.95H3.8v-.95zm7.6 2.85H3.8v.95h7.6v-.95z" fill="currentColor"/></svg><svg fill="none" viewBox="0 0 31 26" id="ic_pdf" xmlns="http://www.w3.org/2000/svg"><path fill-rule="evenodd" clip-rule="evenodd" d="M12.001.5h11.751l6.25 6.25V8H30v17.5h-20V.5h2zm16 7.5h-5.5V2.5h-10.5v21h16V8z" fill="currentColor"/><path fill="currentColor" stroke="currentColor" d="M.5 10.5h20v10H.5z"/><path d="M1.62 11.954h2.74c.702 0 1.274.218 1.713.654.44.433.66 1.001.66 1.704 0 .7-.227 1.268-.68 1.705-.449.436-1.031.654-1.747.654H2.88V19H1.62v-7.046zm1.26 1.03v2.671h1.142c.453 0 .804-.117 1.055-.351.25-.235.376-.565.376-.992 0-.423-.125-.75-.376-.98-.247-.232-.597-.348-1.05-.348H2.88zm4.775-1.03h2.574c1.054 0 1.876.306 2.465.918.59.612.884 1.475.884 2.588 0 1.116-.294 1.986-.884 2.607-.589.622-1.41.933-2.466.933H7.655v-7.046zm1.26 1.065v4.917h1.182c.71 0 1.253-.212 1.63-.635.378-.423.567-1.035.567-1.836 0-.788-.19-1.392-.571-1.812-.381-.423-.923-.634-1.626-.634H8.915zM15.839 19h-1.26v-7.046h4.492v1.065H15.84v2.08h2.954v1.025h-2.954V19z" fill="#fff"/></svg><svg fill="none" viewBox="0 0 19 17" id="ic_search" xmlns="http://www.w3.org/2000/svg"><path fill-rule="evenodd" clip-rule="evenodd" d="M6.616 12.75c3.654 0 6.616-2.854 6.616-6.375C13.232 2.855 10.27 0 6.616 0 2.962 0 0 2.854 0 6.375c0 3.52 2.962 6.375 6.616 6.375z" fill="currentColor"/><path fill-rule="evenodd" clip-rule="evenodd" d="M6.616 11.605c2.923 0 5.293-2.31 5.293-5.158 0-2.848-2.37-5.158-5.293-5.158S1.323 3.6 1.323 6.447c0 2.849 2.37 5.158 5.293 5.158z" fill="#fff"/><path fill-rule="evenodd" clip-rule="evenodd" d="M10.442 11.848c-.42-.36-.42-.942 0-1.3l.079-.068c.42-.36 1.1-.36 1.52 0l5.262 4.502c.42.36.42.941 0 1.3l-.08.068c-.419.359-1.1.359-1.519 0l-5.262-4.503z" fill="currentColor"/></svg><svg fill="none" viewBox="0 0 110 78" id="ic_video_play" xmlns="http://www.w3.org/2000/svg"><path d="M105.231 7.089C101.284 2.42 93.998.516 80.083.516H29.572C15.339.516 7.929 2.543 3.997 7.513.164 12.36.164 19.5.164 29.381v18.835c0 19.145 4.548 28.865 29.408 28.865h50.512c12.067 0 18.753-1.68 23.079-5.8 4.436-4.225 6.329-11.122 6.329-23.065V29.381c0-10.421-.296-17.603-4.261-22.292zm-34.878 34.31L47.416 53.33a3.538 3.538 0 0 1-3.46-.11 3.506 3.506 0 0 1-1.7-3.001V26.436c0-1.225.642-2.363 1.695-3a3.542 3.542 0 0 1 3.457-.114l22.937 11.852a3.507 3.507 0 0 1 1.902 3.11 3.508 3.508 0 0 1-1.894 3.115z" fill="currentColor"/></svg><svg fill="none" viewBox="0 0 60 44" id="ic_view_grid" xmlns="http://www.w3.org/2000/svg"><mask id="la" fill="#fff"><rect x="40.645" y="23" width="12" height="12" rx=".5"/></mask><rect x="40.645" y="23" width="12" height="12" rx=".5" stroke="currentColor" stroke-width="2" mask="url(#la)"/><mask id="lb" fill="#fff"><rect x="24.334" y="23" width="12" height="12" rx=".5"/></mask><rect x="24.334" y="23" width="12" height="12" rx=".5" stroke="currentColor" stroke-width="2" mask="url(#lb)"/><mask id="lc" fill="#fff"><rect x="8" y="23" width="12" height="12" rx=".5"/></mask><rect x="8" y="23" width="12" height="12" rx=".5" stroke="currentColor" stroke-width="2" mask="url(#lc)"/><mask id="ld" fill="#fff"><rect x="40.645" y="8" width="12" height="12" rx=".5"/></mask><rect x="40.645" y="8" width="12" height="12" rx=".5" stroke="currentColor" stroke-width="2" mask="url(#ld)"/><mask id="le" fill="#fff"><rect x="24.334" y="8" width="12" height="12" rx=".5"/></mask><rect x="24.334" y="8" width="12" height="12" rx=".5" stroke="currentColor" stroke-width="2" mask="url(#le)"/><mask id="lf" fill="#fff"><rect x="8" y="8" width="12" height="12" rx=".5"/></mask><rect x="8" y="8" width="12" height="12" rx=".5" stroke="currentColor" stroke-width="2" mask="url(#lf)"/></svg><svg fill="none" viewBox="0 0 15 12" id="ic_view_list" xmlns="http://www.w3.org/2000/svg"><path d="M0 3.935h15M.5 10.868V.5h14v10.368zM0 7.371h15" stroke="currentColor"/></svg><svg fill="none" viewBox="0 0 31 26" id="ic_zip" xmlns="http://www.w3.org/2000/svg"><path fill-rule="evenodd" clip-rule="evenodd" d="M12.001.5h11.751l6.25 6.25V8H30v17.5h-20V.5h2zm16 7.5h-5.5V2.5h-10.5v21h16V8z" fill="currentColor"/><path fill="currentColor" stroke="currentColor" d="M.5 10.5h20v10H.5z"/><path d="M3.45 19v-.84l3.74-5.107v-.034H3.551v-1.065h5.16v.84L4.993 17.9v.035h3.814V19H3.449zm7.69 0H9.88v-7.046h1.26V19zm1.24-7.046h2.74c.702 0 1.274.218 1.713.654.44.433.66 1.001.66 1.704 0 .7-.227 1.268-.68 1.705-.449.436-1.031.654-1.748.654H13.64V19h-1.26v-7.046zm1.26 1.03v2.671h1.142c.453 0 .804-.117 1.055-.351.25-.235.376-.565.376-.992 0-.423-.125-.75-.376-.98-.248-.232-.597-.348-1.05-.348H13.64z" fill="#fff"/></svg></svg>